<?xml version="1.0" standalone="no"?>
<!DOCTYPE svg PUBLIC "-//W3C//DTD SVG 20010904//EN"
 "http://www.w3.org/TR/2001/REC-SVG-20010904/DTD/svg10.dtd">
<svg version="1.0" xmlns="http://www.w3.org/2000/svg"
 width="1338.000000pt" height="1338.000000pt" viewBox="0 0 1338.000000 1338.000000"
 preserveAspectRatio="xMidYMid meet">
<metadata>
Created by potrace 1.11, written by Peter Selinger 2001-2013
</metadata>
<g transform="translate(0.000000,1338.000000) scale(0.100000,-0.100000)"
fill="#000000" stroke="none">
<path d="M11645 12918 c-33 -123 -59 -225 -59 -228 1 -3 -3 -16 -8 -29 -5 -14
-22 -77 -39 -140 -44 -171 -189 -719 -291 -1101 -49 -184 -91 -342 -93 -350
-2 -8 -15 -60 -30 -115 -14 -55 -28 -107 -30 -115 -2 -8 -29 -112 -60 -230
-31 -118 -59 -223 -61 -234 -2 -10 -5 -21 -7 -23 -3 -2 -56 29 -118 70 -232
151 -328 205 -574 326 -210 104 -236 116 -404 183 -69 28 -130 55 -136 62 -9
10 -115 52 -155 61 -8 2 -35 11 -60 20 -45 16 -241 74 -270 80 -8 2 -60 14
-115 28 -88 22 -252 57 -340 72 -16 2 -41 7 -55 9 -23 5 -39 7 -135 21 -71 10
-101 14 -160 20 -33 3 -73 8 -90 10 -248 32 -862 26 -1160 -10 -22 -3 -62 -8
-90 -11 -27 -3 -90 -12 -140 -20 -49 -8 -103 -17 -120 -20 -359 -59 -897 -221
-1235 -372 -73 -32 -397 -192 -455 -224 -188 -104 -510 -310 -610 -390 -5 -4
-51 -39 -102 -78 -317 -241 -674 -589 -923 -899 -19 -24 -46 -58 -60 -75 -14
-17 -45 -58 -70 -91 -24 -33 -60 -82 -81 -110 -212 -288 -444 -706 -604 -1090
-93 -223 -236 -658 -270 -824 -2 -9 -9 -38 -15 -66 -6 -27 -14 -61 -16 -75 -3
-14 -13 -68 -24 -120 -10 -52 -22 -117 -25 -145 -4 -27 -9 -59 -11 -70 -2 -11
-6 -40 -9 -65 -3 -25 -7 -58 -10 -75 -2 -16 -7 -57 -10 -90 -4 -33 -8 -76 -11
-95 -18 -158 -24 -670 -10 -865 14 -187 23 -273 47 -440 40 -272 119 -621 189
-835 12 -36 22 -74 23 -85 1 -11 7 -24 13 -30 6 -5 17 -28 24 -50 45 -144 178
-461 283 -668 43 -87 77 -160 75 -162 -3 -3 -495 -90 -568 -100 -35 -5 -87
-14 -145 -25 -27 -5 -66 -12 -85 -14 -19 -3 -46 -8 -60 -10 -14 -3 -68 -12
-120 -21 -52 -9 -106 -18 -120 -20 -131 -22 -461 -78 -485 -82 -16 -2 -66 -10
-110 -18 -44 -8 -98 -17 -120 -20 -22 -3 -62 -10 -90 -15 -27 -5 -63 -12 -80
-15 -16 -2 -55 -9 -85 -15 -30 -5 -71 -12 -90 -14 -19 -3 -89 -14 -155 -26
-157 -27 -128 -22 -385 -65 -124 -21 -228 -41 -233 -44 -10 -9 542 -188 793
-256 147 -41 423 -114 445 -120 11 -2 76 -18 145 -35 229 -56 720 -163 890
-193 14 -3 63 -12 110 -21 47 -8 99 -18 115 -20 72 -13 274 -47 301 -51 107
-16 172 -26 194 -30 14 -2 45 -6 70 -10 25 -3 56 -8 70 -10 40 -7 216 -30 305
-40 28 -3 61 -8 75 -10 14 -2 57 -7 95 -10 39 -4 77 -8 85 -10 8 -2 51 -7 95
-11 44 -3 87 -8 95 -10 8 -1 29 -3 45 -4 22 0 48 -17 100 -66 181 -170 453
-387 658 -528 88 -60 334 -216 341 -216 2 0 43 -23 92 -51 264 -152 685 -334
1021 -440 56 -18 100 -36 97 -40 -6 -10 11 -20 55 -31 20 -5 43 -11 51 -13
108 -31 297 -75 435 -100 71 -14 267 -45 305 -49 25 -2 72 -7 105 -11 33 -3
74 -8 90 -10 88 -13 302 -20 555 -19 257 0 347 4 505 19 75 7 188 21 295 36
74 11 90 14 140 24 14 2 39 7 55 10 17 2 73 13 125 24 80 17 155 35 405 100
132 35 525 178 661 241 36 16 68 30 72 30 12 0 423 209 432 219 3 3 25 17 50
30 136 74 471 296 600 398 30 24 70 56 89 71 19 15 75 61 125 103 l90 77 63
-65 c68 -69 142 -110 208 -115 55 -3 132 10 138 25 10 28 7 139 -4 179 -16 55
-31 79 -95 153 l-53 61 62 65 c136 143 168 179 269 299 210 252 438 579 566
813 18 31 45 81 61 110 51 93 192 379 196 397 1 3 9 23 19 45 61 137 180 464
226 623 19 64 24 72 45 72 14 0 25 5 25 10 0 6 -9 10 -20 10 -11 0 -20 2 -20
4 0 2 18 77 40 167 21 90 51 232 65 314 14 83 28 161 30 175 3 14 7 50 11 80
3 30 7 57 9 60 2 3 6 46 10 95 4 50 8 101 11 115 23 133 22 784 -1 955 -2 17
-6 59 -9 95 -7 84 -28 247 -41 320 -3 14 -7 41 -10 60 -3 19 -10 55 -15 80 -5
25 -12 56 -14 70 -2 14 -12 57 -21 95 -9 39 -18 77 -20 86 -32 152 -163 583
-204 674 -5 11 -19 47 -32 80 -93 246 -328 719 -353 709 -6 -2 -26 22 -45 53
-107 181 -360 552 -382 561 -4 2 -6 9 -4 15 12 37 29 507 29 807 0 232 -10
580 -19 645 -2 17 -6 75 -10 130 -3 55 -7 111 -9 125 -3 14 -7 62 -11 107 -3
45 -7 90 -9 100 -2 10 -7 47 -10 83 -4 36 -8 77 -11 90 -3 14 -7 44 -10 67 -7
60 -20 143 -35 233 -5 30 -12 71 -15 90 -3 19 -8 49 -12 65 -3 17 -7 37 -9 45
-10 72 -49 257 -86 410 -11 47 -21 92 -23 100 -27 134 -246 870 -259 870 -1 0
-29 -100 -61 -222z m1702 -6820 c-3 -7 -5 -2 -5 12 0 14 2 19 5 13 2 -7 2 -19
0 -25z m-166 -1695 c-12 -20 -14 -14 -5 12 4 9 9 14 11 11 3 -2 0 -13 -6 -23z
m-98 -338 c-3 -9 -8 -14 -10 -11 -3 3 -2 9 2 15 9 16 15 13 8 -4z m-640 -1320
c-3 -9 -8 -14 -10 -11 -3 3 -2 9 2 15 9 16 15 13 8 -4z m-423 -559 c0 -2 -8
-10 -17 -17 -16 -13 -17 -12 -4 4 13 16 21 21 21 13z m-250 -270 c0 -2 -8 -10
-17 -17 -16 -13 -17 -12 -4 4 13 16 21 21 21 13z m-2443 -1452 c-3 -3 -12 -4
-19 -1 -8 3 -5 6 6 6 11 1 17 -2 13 -5z m-730 -150 c-3 -3 -12 -4 -19 -1 -8 3
-5 6 6 6 11 1 17 -2 13 -5z m-150 -20 c-3 -3 -12 -4 -19 -1 -8 3 -5 6 6 6 11
1 17 -2 13 -5z"/>
</g>
</svg>
