
            <svg xmlns="http://www.w3.org/2000/svg" xmlns:cc="http://creativecommons.org/ns#" xmlns:rdf="http://www.w3.org/1999/02/22-rdf-syntax-ns#" version="1.1" width="3203.999755859375" height="121">
              <defs>
                <style type="text/css">svg {
            background-color: #fff; }
          
          .root text,
          .root tspan {
            font: 12px Arial; }
          
          .root path {
            fill-opacity: 0;
            stroke-width: 2px;
            stroke: #000; }
          
          .root circle {
            fill: #6b6659;
            stroke-width: 2px;
            stroke: #000; }
          
          .anchor text, .any-character text {
            fill: #fff; }
          
          .anchor rect, .any-character rect {
            fill: #6b6659; }
          
          .escape text, .charset-escape text, .literal text {
            fill: #000; }
          
          .escape rect, .charset-escape rect {
            fill: #bada55; }
          
          .literal rect {
            fill: #dae9e5; }
          
          .charset .charset-box {
            fill: #cbcbba; }
          
          .subexp .subexp-label tspan,
          .charset .charset-label tspan,
          .match-fragment .repeat-label tspan {
            font-size: 10px; }
          
          .repeat-label {
            cursor: help; }
          
          .subexp .subexp-label tspan,
          .charset .charset-label tspan {
            dominant-baseline: text-after-edge; }
          
          .subexp .subexp-box {
            stroke: #908c83;
            stroke-dasharray: 6,2;
            stroke-width: 2px;
            fill-opacity: 0; }
          
          .quote {
            fill: #908c83; }
          </style>
              </defs>
              <metadata>
                <rdf:rdf>
                  <cc:license rdf:about="http://creativecommons.org/licenses/by/3.0/">
                    <cc:permits rdf:resource="http://creativecommons.org/ns#Reproduction"></cc:permits>
                    <cc:permits rdf:resource="http://creativecommons.org/ns#Distribution"></cc:permits>
                    <cc:requires rdf:resource="http://creativecommons.org/ns#Notice"></cc:requires>
                    <cc:requires rdf:resource="http://creativecommons.org/ns#Attribution"></cc:requires>
                    <cc:permits rdf:resource="http://creativecommons.org/ns#DerivativeWorks"></cc:permits>
                  </cc:license>
                </rdf:rdf>
              </metadata>
            <desc>Created with Snap</desc><g class="root" transform="matrix(1,0,0,1,15,10)"><g class="regexp match" transform="matrix(1,0,0,1,10,0)"><path d="M61.56666564941406,53H101.5667M174.9000282470703,53H229.9M261.9,53H316.9M805.2333282470703,53H835.2333M861.2333,53H901.2333M1215.2333282470704,53H1260.2333M1332.2333,53H1382.2333M1518.4166,53H1584.2666M1657.5999282470702,53H1702.6M1774.6,53H1824.6M1960.7832999999998,53H2026.6333M2099.9666282470703,53H2144.9666M2216.9666,53H2266.9666M2403.1499000000003,53H2468.9999M3023.6665282470703,53H3068.6665"></path><g class="match-fragment subexp" transform="matrix(1,0,0,1,0,18)"><rect class="subexp-box" rx="3" ry="3" transform="matrix(1,0,0,1,0,13)" width="71.56666564941406" height="44"></rect><text x="0" y="0" class="subexp-label" transform="matrix(1,0,0,1,0,13)"><tspan>group #1</tspan></text><g class="regexp match match-fragment literal" transform="matrix(1,0,0,1,10,23)"><g class="label"><rect width="51.56666564941406" height="24" rx="3" ry="3"></rect><text x="0" y="0" transform="matrix(1,0,0,1,5,17)"><tspan class="quote">“</tspan><tspan>ATOM</tspan><tspan class="quote">”</tspan></text></g></g></g><g class="match-fragment subexp" transform="matrix(1,0,0,1,81.5667,18)"><rect class="subexp-box" rx="3" ry="3" transform="matrix(1,0,0,1,0,13)" width="118.33332824707031" height="54"></rect><text x="0" y="0" class="subexp-label" transform="matrix(1,0,0,1,0,13)"><tspan>group #2</tspan></text><g class="regexp match match-fragment" transform="matrix(1,0,0,1,10,23)"><path d="M10,12q-10,0 -10,10v2q0,10 10,10h73.33332824707031q10,0 10,-10v-2q0,-10 -10,-10M93.33332824707031,27l5,-5m-5,5l-5,-5"></path><g class="escape" transform="matrix(1,0,0,1,10,0)"><g class="label"><rect width="73.33333206176758" height="24" rx="3" ry="3"></rect><text x="0" y="0" transform="matrix(1,0,0,1,5,17)"><tspan>white space</tspan></text></g></g></g></g><g class="match-fragment subexp" transform="matrix(1,0,0,1,209.9,18)"><rect class="subexp-box" rx="3" ry="3" transform="matrix(1,0,0,1,0,13)" width="77" height="54"></rect><text x="0" y="0" class="subexp-label" transform="matrix(1,0,0,1,0,13)"><tspan>group #3</tspan></text><g class="regexp match match-fragment" transform="matrix(1,0,0,1,10,23)"><path d="M10,12q-10,0 -10,10v2q0,10 10,10h32q10,0 10,-10v-2q0,-10 -10,-10M52,27l5,-5m-5,5l-5,-5"></path><g class="escape" transform="matrix(1,0,0,1,10,0)"><g class="label"><rect width="32" height="24" rx="3" ry="3"></rect><text x="0" y="0" transform="matrix(1,0,0,1,5,17)"><tspan>digit</tspan></text></g></g></g></g><g class="match-fragment subexp" transform="matrix(1,0,0,1,296.9,8)"><rect class="subexp-box" rx="3" ry="3" transform="matrix(1,0,0,1,0,13)" width="518.3333129882812" height="80"></rect><text x="0" y="0" class="subexp-label" transform="matrix(1,0,0,1,0,13)"><tspan>group #4</tspan></text><g class="regexp match" transform="matrix(1,0,0,1,10,23)"><path d="M83.33332824707031,22H118.3333M215.66663587646485,22H255.6667M329.0000282470703,22H364M400,22H425"></path><g class="match-fragment" transform="matrix(1,0,0,1,0,10)"><path d="M10,12q-10,0 -10,10v2q0,10 10,10h73.33332824707031q10,0 10,-10v-2q0,-10 -10,-10M93.33332824707031,27l5,-5m-5,5l-5,-5"></path><g class="escape" transform="matrix(1,0,0,1,10,0)"><g class="label"><rect width="73.33333206176758" height="24" rx="3" ry="3"></rect><text x="0" y="0" transform="matrix(1,0,0,1,5,17)"><tspan>white space</tspan></text></g></g></g><g class="match-fragment" transform="matrix(1,0,0,1,108.3333,10)"><path d="M10,12q-10,0 -10,10v2q0,10 10,10h97.33333587646484q10,0 10,-10v-2q0,-10 -10,-10M117.33333587646484,27l5,-5m-5,5l-5,-5"></path><g class="escape" transform="matrix(1,0,0,1,10,0)"><g class="label"><rect width="97.33333587646484" height="24" rx="3" ry="3"></rect><text x="0" y="0" transform="matrix(1,0,0,1,5,17)"><tspan>non-white space</tspan></text></g></g></g><g class="match-fragment" transform="matrix(1,0,0,1,240.6667,0)"><path d="M0,22q10,0 10,-10v-2q0,-10 10,-10h63.33332824707031q10,0 10,10v2q0,10 10,10M15,22q-10,0 -10,10v2q0,10 10,10h73.33332824707031q10,0 10,-10v-2q0,-10 -10,-10M98.33332824707031,37l5,-5m-5,5l-5,-5"></path><g class="escape" transform="matrix(1,0,0,1,15,10)"><g class="label"><rect width="73.33333206176758" height="24" rx="3" ry="3"></rect><text x="0" y="0" transform="matrix(1,0,0,1,5,17)"><tspan>white space</tspan></text></g></g></g><g class="match-fragment" transform="matrix(1,0,0,1,354,10)"><path d="M10,12q-10,0 -10,10v2q0,10 10,10h36q10,0 10,-10v-2q0,-10 -10,-10M56,27l5,-5m-5,5l-5,-5"></path><g class="escape" transform="matrix(1,0,0,1,10,0)"><g class="label"><rect width="36" height="24" rx="3" ry="3"></rect><text x="0" y="0" transform="matrix(1,0,0,1,5,17)"><tspan>word</tspan></text></g></g><text x="0" y="0" class="repeat-label" transform="matrix(1,0,0,1,13.1833,47)"><tspan>2…3 times</tspan><title><text x="0" y="0">repeats 3…4 times in total</text></title></text></g><g class="match-fragment escape" transform="matrix(1,0,0,1,425,10)"><g class="label"><rect width="73.33333206176758" height="24" rx="3" ry="3"></rect><text x="0" y="0" transform="matrix(1,0,0,1,5,17)"><tspan>white space</tspan></text></g></g></g></g><g class="match-fragment subexp" transform="matrix(1,0,0,1,825.2333,18)"><rect class="subexp-box" rx="3" ry="3" transform="matrix(1,0,0,1,0,13)" width="46" height="44"></rect><text x="0" y="0" class="subexp-label" transform="matrix(1,0,0,1,0,13)"><tspan>group #5</tspan></text><g class="regexp match match-fragment literal" transform="matrix(1,0,0,1,10,23)"><g class="label"><rect width="26" height="24" rx="3" ry="3"></rect><text x="0" y="0" transform="matrix(1,0,0,1,5,17)"><tspan class="quote">“</tspan><tspan>A</tspan><tspan class="quote">”</tspan></text></g></g></g><g class="match-fragment subexp" transform="matrix(1,0,0,1,881.2333,18)"><rect class="subexp-box" rx="3" ry="3" transform="matrix(1,0,0,1,0,13)" width="359.0000305175781" height="54"></rect><text x="0" y="0" class="subexp-label" transform="matrix(1,0,0,1,0,13)"><tspan>group #6</tspan></text><g class="regexp match" transform="matrix(1,0,0,1,10,23)"><path d="M83.33332824707031,12H118.3333M215.66663587646485,12H250.6667"></path><g class="match-fragment" transform="matrix(1,0,0,1,0,0)"><path d="M10,12q-10,0 -10,10v2q0,10 10,10h73.33332824707031q10,0 10,-10v-2q0,-10 -10,-10M93.33332824707031,27l5,-5m-5,5l-5,-5"></path><g class="escape" transform="matrix(1,0,0,1,10,0)"><g class="label"><rect width="73.33333206176758" height="24" rx="3" ry="3"></rect><text x="0" y="0" transform="matrix(1,0,0,1,5,17)"><tspan>white space</tspan></text></g></g></g><g class="match-fragment" transform="matrix(1,0,0,1,108.3333,0)"><path d="M10,12q-10,0 -10,10v2q0,10 10,10h97.33333587646484q10,0 10,-10v-2q0,-10 -10,-10M117.33333587646484,27l5,-5m-5,5l-5,-5"></path><g class="escape" transform="matrix(1,0,0,1,10,0)"><g class="label"><rect width="97.33333587646484" height="24" rx="3" ry="3"></rect><text x="0" y="0" transform="matrix(1,0,0,1,5,17)"><tspan>non-white space</tspan></text></g></g></g><g class="match-fragment" transform="matrix(1,0,0,1,240.6667,0)"><path d="M10,12q-10,0 -10,10v2q0,10 10,10h73.33332824707031q10,0 10,-10v-2q0,-10 -10,-10M93.33332824707031,27l5,-5m-5,5l-5,-5"></path><g class="escape" transform="matrix(1,0,0,1,10,0)"><g class="label"><rect width="73.33333206176758" height="24" rx="3" ry="3"></rect><text x="0" y="0" transform="matrix(1,0,0,1,5,17)"><tspan>white space</tspan></text></g></g></g></g></g><g class="match-fragment subexp" transform="matrix(1,0,0,1,1250.2333,3.5)"><rect class="subexp-box" rx="3" ry="3" transform="matrix(1,0,0,1,0,13)" width="92" height="73"></rect><text x="0" y="0" class="subexp-label" transform="matrix(1,0,0,1,0,13)"><tspan>group #7</tspan></text><g class="regexp" transform="matrix(1,0,0,1,10,23)"><path d="M0,26.5c10,0 10,-14.5 20,-14.5M72,26.5c-10,0 -10,-14.5 -20,-14.5M0,26.5c10,0 10,14.5 20,14.5M72,26.5c-10,0 -10,14.5 -20,14.5"></path><g class="regexp-matches" transform="matrix(1,0,0,1,20,0)"><path d="M0,12h5M27,12H32M0,41h0M32,41H32"></path><g class="match match-fragment literal" transform="matrix(1,0,0,1,5,0)"><g class="label"><rect width="22" height="24" rx="3" ry="3"></rect><text x="0" y="0" transform="matrix(1,0,0,1,5,17)"><tspan class="quote">“</tspan><tspan>-</tspan><tspan class="quote">”</tspan></text></g></g><g class="match match-fragment escape" transform="matrix(1,0,0,1,0,29)"><g class="label"><rect width="32" height="24" rx="3" ry="3"></rect><text x="0" y="0" transform="matrix(1,0,0,1,5,17)"><tspan>digit</tspan></text></g></g></g></g></g><g class="match-fragment subexp" transform="matrix(1,0,0,1,1352.2333,8)"><rect class="subexp-box" rx="3" ry="3" transform="matrix(1,0,0,1,0,13)" width="202.03329467773438" height="80"></rect><text x="0" y="0" class="subexp-label" transform="matrix(1,0,0,1,0,13)"><tspan>group #8</tspan></text><g class="regexp match" transform="matrix(1,0,0,1,15,23)"><path d="M47,22H77.85M99.1833339691162,22H119.1833"></path><g class="match-fragment" transform="matrix(1,0,0,1,0,0)"><path d="M0,22q10,0 10,-10v-2q0,-10 10,-10h22q10,0 10,10v2q0,10 10,10M15,22q-10,0 -10,10v2q0,10 10,10h32q10,0 10,-10v-2q0,-10 -10,-10M57,37l5,-5m-5,5l-5,-5"></path><g class="escape" transform="matrix(1,0,0,1,15,10)"><g class="label"><rect width="32" height="24" rx="3" ry="3"></rect><text x="0" y="0" transform="matrix(1,0,0,1,5,17)"><tspan>digit</tspan></text></g></g><text x="0" y="0" class="repeat-label" transform="matrix(1,0,0,1,-5,57)"><tspan>at most 2 times</tspan><title><text x="0" y="0">repeats at most 3 times in total</text></title></text></g><g class="match-fragment literal" transform="matrix(1,0,0,1,77.85,10)"><g class="label"><rect width="21.33333396911621" height="24" rx="3" ry="3"></rect><text x="0" y="0" transform="matrix(1,0,0,1,5,17)"><tspan class="quote">“</tspan><tspan>.</tspan><tspan class="quote">”</tspan></text></g></g><g class="match-fragment" transform="matrix(1,0,0,1,109.1833,10)"><path d="M10,12q-10,0 -10,10v2q0,10 10,10h32q10,0 10,-10v-2q0,-10 -10,-10M52,27l5,-5m-5,5l-5,-5"></path><g class="escape" transform="matrix(1,0,0,1,10,0)"><g class="label"><rect width="32" height="24" rx="3" ry="3"></rect><text x="0" y="0" transform="matrix(1,0,0,1,5,17)"><tspan>digit</tspan></text></g></g><text x="0" y="0" class="repeat-label" transform="matrix(1,0,0,1,0,47)"><tspan>at most 2 times</tspan><title><text x="0" y="0">repeats at most 3 times in total</text></title></text></g></g></g><g class="match-fragment subexp" transform="matrix(1,0,0,1,1564.2666,18)"><rect class="subexp-box" rx="3" ry="3" transform="matrix(1,0,0,1,0,13)" width="118.33332824707031" height="54"></rect><text x="0" y="0" class="subexp-label" transform="matrix(1,0,0,1,0,13)"><tspan>group #9</tspan></text><g class="regexp match match-fragment" transform="matrix(1,0,0,1,10,23)"><path d="M10,12q-10,0 -10,10v2q0,10 10,10h73.33332824707031q10,0 10,-10v-2q0,-10 -10,-10M93.33332824707031,27l5,-5m-5,5l-5,-5"></path><g class="escape" transform="matrix(1,0,0,1,10,0)"><g class="label"><rect width="73.33333206176758" height="24" rx="3" ry="3"></rect><text x="0" y="0" transform="matrix(1,0,0,1,5,17)"><tspan>white space</tspan></text></g></g></g></g><g class="match-fragment subexp" transform="matrix(1,0,0,1,1692.6,3.5)"><rect class="subexp-box" rx="3" ry="3" transform="matrix(1,0,0,1,0,13)" width="92" height="73"></rect><text x="0" y="0" class="subexp-label" transform="matrix(1,0,0,1,0,13)"><tspan>group #10</tspan></text><g class="regexp" transform="matrix(1,0,0,1,10,23)"><path d="M0,26.5c10,0 10,-14.5 20,-14.5M72,26.5c-10,0 -10,-14.5 -20,-14.5M0,26.5c10,0 10,14.5 20,14.5M72,26.5c-10,0 -10,14.5 -20,14.5"></path><g class="regexp-matches" transform="matrix(1,0,0,1,20,0)"><path d="M0,12h5M27,12H32M0,41h0M32,41H32"></path><g class="match match-fragment literal" transform="matrix(1,0,0,1,5,0)"><g class="label"><rect width="22" height="24" rx="3" ry="3"></rect><text x="0" y="0" transform="matrix(1,0,0,1,5,17)"><tspan class="quote">“</tspan><tspan>-</tspan><tspan class="quote">”</tspan></text></g></g><g class="match match-fragment escape" transform="matrix(1,0,0,1,0,29)"><g class="label"><rect width="32" height="24" rx="3" ry="3"></rect><text x="0" y="0" transform="matrix(1,0,0,1,5,17)"><tspan>digit</tspan></text></g></g></g></g></g><g class="match-fragment subexp" transform="matrix(1,0,0,1,1794.6,8)"><rect class="subexp-box" rx="3" ry="3" transform="matrix(1,0,0,1,0,13)" width="202.03329467773438" height="80"></rect><text x="0" y="0" class="subexp-label" transform="matrix(1,0,0,1,0,13)"><tspan>group #11</tspan></text><g class="regexp match" transform="matrix(1,0,0,1,15,23)"><path d="M47,22H77.85M99.1833339691162,22H119.1833"></path><g class="match-fragment" transform="matrix(1,0,0,1,0,0)"><path d="M0,22q10,0 10,-10v-2q0,-10 10,-10h22q10,0 10,10v2q0,10 10,10M15,22q-10,0 -10,10v2q0,10 10,10h32q10,0 10,-10v-2q0,-10 -10,-10M57,37l5,-5m-5,5l-5,-5"></path><g class="escape" transform="matrix(1,0,0,1,15,10)"><g class="label"><rect width="32" height="24" rx="3" ry="3"></rect><text x="0" y="0" transform="matrix(1,0,0,1,5,17)"><tspan>digit</tspan></text></g></g><text x="0" y="0" class="repeat-label" transform="matrix(1,0,0,1,-5,57)"><tspan>at most 2 times</tspan><title><text x="0" y="0">repeats at most 3 times in total</text></title></text></g><g class="match-fragment literal" transform="matrix(1,0,0,1,77.85,10)"><g class="label"><rect width="21.33333396911621" height="24" rx="3" ry="3"></rect><text x="0" y="0" transform="matrix(1,0,0,1,5,17)"><tspan class="quote">“</tspan><tspan>.</tspan><tspan class="quote">”</tspan></text></g></g><g class="match-fragment" transform="matrix(1,0,0,1,109.1833,10)"><path d="M10,12q-10,0 -10,10v2q0,10 10,10h32q10,0 10,-10v-2q0,-10 -10,-10M52,27l5,-5m-5,5l-5,-5"></path><g class="escape" transform="matrix(1,0,0,1,10,0)"><g class="label"><rect width="32" height="24" rx="3" ry="3"></rect><text x="0" y="0" transform="matrix(1,0,0,1,5,17)"><tspan>digit</tspan></text></g></g><text x="0" y="0" class="repeat-label" transform="matrix(1,0,0,1,0,47)"><tspan>at most 2 times</tspan><title><text x="0" y="0">repeats at most 3 times in total</text></title></text></g></g></g><g class="match-fragment subexp" transform="matrix(1,0,0,1,2006.6333,18)"><rect class="subexp-box" rx="3" ry="3" transform="matrix(1,0,0,1,0,13)" width="118.33332824707031" height="54"></rect><text x="0" y="0" class="subexp-label" transform="matrix(1,0,0,1,0,13)"><tspan>group #12</tspan></text><g class="regexp match match-fragment" transform="matrix(1,0,0,1,10,23)"><path d="M10,12q-10,0 -10,10v2q0,10 10,10h73.33332824707031q10,0 10,-10v-2q0,-10 -10,-10M93.33332824707031,27l5,-5m-5,5l-5,-5"></path><g class="escape" transform="matrix(1,0,0,1,10,0)"><g class="label"><rect width="73.33333206176758" height="24" rx="3" ry="3"></rect><text x="0" y="0" transform="matrix(1,0,0,1,5,17)"><tspan>white space</tspan></text></g></g></g></g><g class="match-fragment subexp" transform="matrix(1,0,0,1,2134.9666,3.5)"><rect class="subexp-box" rx="3" ry="3" transform="matrix(1,0,0,1,0,13)" width="92" height="73"></rect><text x="0" y="0" class="subexp-label" transform="matrix(1,0,0,1,0,13)"><tspan>group #13</tspan></text><g class="regexp" transform="matrix(1,0,0,1,10,23)"><path d="M0,26.5c10,0 10,-14.5 20,-14.5M72,26.5c-10,0 -10,-14.5 -20,-14.5M0,26.5c10,0 10,14.5 20,14.5M72,26.5c-10,0 -10,14.5 -20,14.5"></path><g class="regexp-matches" transform="matrix(1,0,0,1,20,0)"><path d="M0,12h5M27,12H32M0,41h0M32,41H32"></path><g class="match match-fragment literal" transform="matrix(1,0,0,1,5,0)"><g class="label"><rect width="22" height="24" rx="3" ry="3"></rect><text x="0" y="0" transform="matrix(1,0,0,1,5,17)"><tspan class="quote">“</tspan><tspan>-</tspan><tspan class="quote">”</tspan></text></g></g><g class="match match-fragment escape" transform="matrix(1,0,0,1,0,29)"><g class="label"><rect width="32" height="24" rx="3" ry="3"></rect><text x="0" y="0" transform="matrix(1,0,0,1,5,17)"><tspan>digit</tspan></text></g></g></g></g></g><g class="match-fragment subexp" transform="matrix(1,0,0,1,2236.9666,8)"><rect class="subexp-box" rx="3" ry="3" transform="matrix(1,0,0,1,0,13)" width="202.03329467773438" height="80"></rect><text x="0" y="0" class="subexp-label" transform="matrix(1,0,0,1,0,13)"><tspan>group #14</tspan></text><g class="regexp match" transform="matrix(1,0,0,1,15,23)"><path d="M47,22H77.85M99.1833339691162,22H119.1833"></path><g class="match-fragment" transform="matrix(1,0,0,1,0,0)"><path d="M0,22q10,0 10,-10v-2q0,-10 10,-10h22q10,0 10,10v2q0,10 10,10M15,22q-10,0 -10,10v2q0,10 10,10h32q10,0 10,-10v-2q0,-10 -10,-10M57,37l5,-5m-5,5l-5,-5"></path><g class="escape" transform="matrix(1,0,0,1,15,10)"><g class="label"><rect width="32" height="24" rx="3" ry="3"></rect><text x="0" y="0" transform="matrix(1,0,0,1,5,17)"><tspan>digit</tspan></text></g></g><text x="0" y="0" class="repeat-label" transform="matrix(1,0,0,1,-5,57)"><tspan>at most 2 times</tspan><title><text x="0" y="0">repeats at most 3 times in total</text></title></text></g><g class="match-fragment literal" transform="matrix(1,0,0,1,77.85,10)"><g class="label"><rect width="21.33333396911621" height="24" rx="3" ry="3"></rect><text x="0" y="0" transform="matrix(1,0,0,1,5,17)"><tspan class="quote">“</tspan><tspan>.</tspan><tspan class="quote">”</tspan></text></g></g><g class="match-fragment" transform="matrix(1,0,0,1,109.1833,10)"><path d="M10,12q-10,0 -10,10v2q0,10 10,10h32q10,0 10,-10v-2q0,-10 -10,-10M52,27l5,-5m-5,5l-5,-5"></path><g class="escape" transform="matrix(1,0,0,1,10,0)"><g class="label"><rect width="32" height="24" rx="3" ry="3"></rect><text x="0" y="0" transform="matrix(1,0,0,1,5,17)"><tspan>digit</tspan></text></g></g><text x="0" y="0" class="repeat-label" transform="matrix(1,0,0,1,0,47)"><tspan>at most 2 times</tspan><title><text x="0" y="0">repeats at most 3 times in total</text></title></text></g></g></g><g class="match-fragment subexp" transform="matrix(1,0,0,1,2448.9999,18)"><rect class="subexp-box" rx="3" ry="3" transform="matrix(1,0,0,1,0,13)" width="599.6666259765625" height="54"></rect><text x="0" y="0" class="subexp-label" transform="matrix(1,0,0,1,0,13)"><tspan>group #15</tspan></text><g class="regexp match" transform="matrix(1,0,0,1,10,23)"><path d="M83.33332824707031,12H118.3333M215.66663587646485,12H250.6667M324.0000282470703,12H359M456.33333587646484,12H491.3333"></path><g class="match-fragment" transform="matrix(1,0,0,1,0,0)"><path d="M10,12q-10,0 -10,10v2q0,10 10,10h73.33332824707031q10,0 10,-10v-2q0,-10 -10,-10M93.33332824707031,27l5,-5m-5,5l-5,-5"></path><g class="escape" transform="matrix(1,0,0,1,10,0)"><g class="label"><rect width="73.33333206176758" height="24" rx="3" ry="3"></rect><text x="0" y="0" transform="matrix(1,0,0,1,5,17)"><tspan>white space</tspan></text></g></g></g><g class="match-fragment" transform="matrix(1,0,0,1,108.3333,0)"><path d="M10,12q-10,0 -10,10v2q0,10 10,10h97.33333587646484q10,0 10,-10v-2q0,-10 -10,-10M117.33333587646484,27l5,-5m-5,5l-5,-5"></path><g class="escape" transform="matrix(1,0,0,1,10,0)"><g class="label"><rect width="97.33333587646484" height="24" rx="3" ry="3"></rect><text x="0" y="0" transform="matrix(1,0,0,1,5,17)"><tspan>non-white space</tspan></text></g></g></g><g class="match-fragment" transform="matrix(1,0,0,1,240.6667,0)"><path d="M10,12q-10,0 -10,10v2q0,10 10,10h73.33332824707031q10,0 10,-10v-2q0,-10 -10,-10M93.33332824707031,27l5,-5m-5,5l-5,-5"></path><g class="escape" transform="matrix(1,0,0,1,10,0)"><g class="label"><rect width="73.33333206176758" height="24" rx="3" ry="3"></rect><text x="0" y="0" transform="matrix(1,0,0,1,5,17)"><tspan>white space</tspan></text></g></g></g><g class="match-fragment" transform="matrix(1,0,0,1,349,0)"><path d="M10,12q-10,0 -10,10v2q0,10 10,10h97.33333587646484q10,0 10,-10v-2q0,-10 -10,-10M117.33333587646484,27l5,-5m-5,5l-5,-5"></path><g class="escape" transform="matrix(1,0,0,1,10,0)"><g class="label"><rect width="97.33333587646484" height="24" rx="3" ry="3"></rect><text x="0" y="0" transform="matrix(1,0,0,1,5,17)"><tspan>non-white space</tspan></text></g></g></g><g class="match-fragment" transform="matrix(1,0,0,1,481.3333,0)"><path d="M10,12q-10,0 -10,10v2q0,10 10,10h73.33332824707031q10,0 10,-10v-2q0,-10 -10,-10M93.33332824707031,27l5,-5m-5,5l-5,-5"></path><g class="escape" transform="matrix(1,0,0,1,10,0)"><g class="label"><rect width="73.33333206176758" height="24" rx="3" ry="3"></rect><text x="0" y="0" transform="matrix(1,0,0,1,5,17)"><tspan>white space</tspan></text></g></g></g></g></g><g class="match-fragment subexp" transform="matrix(1,0,0,1,3058.6665,0)"><rect class="subexp-box" rx="3" ry="3" transform="matrix(1,0,0,1,0,13)" width="95.33332824707031" height="67"></rect><text x="0" y="0" class="subexp-label" transform="matrix(1,0,0,1,0,13)"><tspan>group #16</tspan></text><g class="regexp match match-fragment charset" transform="matrix(1,0,0,1,10,23)"><rect class="charset-box" rx="3" ry="3" transform="matrix(1,0,0,1,0,13)" width="75.33332824707031" height="34"></rect><text x="0" y="0" class="charset-label" transform="matrix(1,0,0,1,0,13)"><tspan>One of:</tspan></text><g transform="matrix(1,0,0,1,5,18)"><g class="charset-range" transform="matrix(1,0,0,1,0,0)"><text x="0" y="0" transform="matrix(1,0,0,1,31,16)">-</text><g class="literal" transform="matrix(1,0,0,1,0,0)"><g class="label"><rect width="26" height="24" rx="3" ry="3"></rect><text x="0" y="0" transform="matrix(1,0,0,1,5,17)"><tspan class="quote">“</tspan><tspan>A</tspan><tspan class="quote">”</tspan></text></g></g><g class="literal" transform="matrix(1,0,0,1,40,0)"><g class="label"><rect width="25.333333015441895" height="24" rx="3" ry="3"></rect><text x="0" y="0" transform="matrix(1,0,0,1,5,17)"><tspan class="quote">“</tspan><tspan>Z</tspan><tspan class="quote">”</tspan></text></g></g></g></g></g></g></g><path d="M20,53H0M3153.99982824707,53H3173.999755859375"></path><circle cx="0" cy="53" r="5"></circle><circle cx="3173.999755859375" cy="53" r="5"></circle></g></svg>
          